# xmcd
#
# Track frame offsets: 
#        150
#        3407
#        24370
#        46069
#        61526
#        75739
#        92554
#        119143
#        137289
#        166964
#        175820
#        207366
#        223335
#        249227
#        273291
#        294436
#        315957
#
# Disc length: 4370 seconds
#
# Revision: 4
# Processed by: cddbd v1.5.1PL2 Copyright (c) Steve Scherf et al.
# Submitted via: ExactAudioCopy v0.95b3
#
DISCID=db111011
DTITLE=Mixed by Jason Midro - Bass Station - Disc 01
DYEAR=2002
DGENRE=Dance
TTITLE0=Orgon Donors - Bad Karma (Uberdruck Remix)
TTITLE1=Dumonde - See the Light - (DJ Jam X and De Leon Mix)
TTITLE2=The S.O.N. Brothers - Bass Station - The Sound Of Now (Acapell
TTITLE2=a)
TTITLE3=Vanessa Mae - White Bird (Cosmic Gate Mix)
TTITLE4=Frank Vanoli - Next Form
TTITLE5=Marcel Woods - De Bom 2001
TTITLE6=Dirt Devils - The Drill (Evacuation Mix)
TTITLE7=DJ Dean - Don't Stop (Club Mix)
TTITLE8=Russian Mafia - Afraid Of Us (Schwarze Puppen Mix)
TTITLE9=Poeppelbaum and Helmedach - 25. 17 (2nd Club Mix)
TTITLE10=DJ Energy - Excelsis (S.H.O.K. K. Remix)
TTITLE11=Cosmic Gate - The Truth (DJ Isaac Remix)
TTITLE12=Presswerk - Don't Cry (DJ Jean Mix)
TTITLE13=Yoji Biomehanika - Ding-a-ling (DJ Scot Remix)
TTITLE14=Genlog - Mockmoon 2002 (Rave Allstars Remix)
TTITLE15=Cherry Dee - Time
TTITLE16=The S.O.N. Brothers - The Sounds Of Bass Station Now (Mark "M
TTITLE16=idi" and DJ.A.S.O.N Mix)
EXTD=
EXTT0=
EXTT1=
EXTT2=
EXTT3=
EXTT4=
EXTT5=
EXTT6=
EXTT7=
EXTT8=
EXTT9=
EXTT10=
EXTT11=
EXTT12=
EXTT13=
EXTT14=
EXTT15=
EXTT16=
PLAYORDER=
